<?xml version="1.0" encoding="UTF-8"?>
<svg xmlns="http://www.w3.org/2000/svg" xmlns:xlink="http://www.w3.org/1999/xlink" width="20pt" height="20pt" viewBox="0 0 20 20" version="1.1">
<g id="surface1">
<path style=" stroke:none;fill-rule:nonzero;fill:rgb(0.392157%,0%,0.784314%);fill-opacity:1;" d="M 12.421875 5.671875 C 12.640625 5.671875 12.816406 5.496094 12.816406 5.277344 C 12.816406 5.058594 12.640625 4.882812 12.421875 4.882812 L 6.988281 4.882812 C 6.769531 4.882812 6.589844 5.058594 6.589844 5.277344 C 6.589844 5.496094 6.769531 5.671875 6.988281 5.671875 Z M 12.421875 5.671875 "/>
<path style=" stroke:none;fill-rule:nonzero;fill:rgb(0.392157%,0%,0.784314%);fill-opacity:1;" d="M 17.875 4.882812 L 15.179688 4.882812 C 14.960938 4.882812 14.78125 5.058594 14.78125 5.277344 C 14.78125 5.496094 14.960938 5.671875 15.179688 5.671875 L 17.480469 5.671875 L 17.480469 19.050781 L 2.363281 19.050781 L 2.363281 5.671875 L 4.53125 5.671875 C 4.75 5.671875 4.929688 5.496094 4.929688 5.277344 C 4.929688 5.058594 4.75 4.882812 4.53125 4.882812 L 1.96875 4.882812 C 1.75 4.882812 1.570312 5.058594 1.570312 5.277344 L 1.570312 19.445312 C 1.570312 19.664062 1.75 19.839844 1.96875 19.839844 L 17.875 19.839844 C 18.09375 19.839844 18.269531 19.664062 18.269531 19.445312 L 18.269531 5.277344 C 18.269531 5.058594 18.09375 4.882812 17.875 4.882812 Z M 17.875 4.882812 "/>
<path style=" stroke:none;fill-rule:nonzero;fill:rgb(0.392157%,0%,0.784314%);fill-opacity:1;" d="M 13.761719 6.566406 C 13.980469 6.566406 14.15625 6.386719 14.15625 6.167969 L 14.15625 3.28125 C 14.15625 1.472656 12.203125 0 9.792969 0 C 7.390625 0 5.4375 1.472656 5.4375 3.28125 L 5.4375 6.167969 C 5.4375 6.386719 5.617188 6.566406 5.835938 6.566406 C 6.054688 6.566406 6.230469 6.386719 6.230469 6.167969 L 6.230469 3.28125 C 6.230469 1.90625 7.828125 0.792969 9.804688 0.792969 C 11.765625 0.792969 13.363281 1.90625 13.363281 3.28125 L 13.363281 6.167969 C 13.363281 6.386719 13.542969 6.566406 13.761719 6.566406 Z M 13.761719 6.566406 "/>
<path style=" stroke:none;fill-rule:nonzero;fill:rgb(0.392157%,0%,0.784314%);fill-opacity:1;" d="M 4.816406 7.1875 C 4.816406 7.746094 5.273438 8.203125 5.835938 8.203125 C 6.394531 8.203125 6.851562 7.746094 6.851562 7.1875 C 6.851562 6.96875 6.675781 6.789062 6.457031 6.789062 C 6.238281 6.789062 6.0625 6.964844 6.0625 7.1875 C 6.0625 7.308594 5.960938 7.414062 5.835938 7.414062 C 5.710938 7.414062 5.605469 7.308594 5.605469 7.1875 C 5.605469 6.96875 5.429688 6.789062 5.210938 6.789062 C 4.992188 6.789062 4.816406 6.96875 4.816406 7.1875 Z M 4.816406 7.1875 "/>
<path style=" stroke:none;fill-rule:nonzero;fill:rgb(0.392157%,0%,0.784314%);fill-opacity:1;" d="M 13.761719 8.203125 C 14.324219 8.203125 14.78125 7.746094 14.78125 7.1875 C 14.78125 6.96875 14.601562 6.789062 14.382812 6.789062 C 14.164062 6.789062 13.988281 6.964844 13.988281 7.1875 C 13.988281 7.308594 13.886719 7.414062 13.761719 7.414062 C 13.632812 7.414062 13.535156 7.308594 13.535156 7.1875 C 13.535156 6.96875 13.355469 6.789062 13.136719 6.789062 C 12.921875 6.789062 12.742188 6.964844 12.742188 7.1875 C 12.742188 7.746094 13.199219 8.203125 13.761719 8.203125 Z M 13.761719 8.203125 "/>
</g>
</svg>
